ffmpeg started on 2025-05-26 at 18:14:51
Report written to "D:\Convert\FFMetrics\reports\psnr_report-6.txt"
Log level: 32
Command line:
ffmpeg -hide_banner -nostdin -i "G:\\\xc0\xed\xe8\xec\xe5\\\xce\xed\xe3\xee\xe8\xed\xe3\xe8\\!_34_\xc2\xe5\xf1\xed\xe0_2024\\DreamCast\\\xc4\xe2\xe5 \xf1\xf2\xee\xf0\xee\xed\xfb \xf1\xfd\xe9\xfe \xf0\xe0\xe4\xe8\xee\\[DC] Seiyuu Radio no Uraomote - 07_Telegram_HEVC.mkv" -i "G:\\\xc0\xed\xe8\xec\xe5\\\xce\xed\xe3\xee\xe8\xed\xe3\xe8\\!_34_\xc2\xe5\xf1\xed\xe0_2024\\DreamCast\\\xc4\xe2\xe5 \xf1\xf2\xee\xf0\xee\xed\xfb \xf1\xfd\xe9\xfe \xf0\xe0\xe4\xe8\xee\\[DC] Seiyuu Radio no Uraomote - 07_Telegram.mp4" -lavfi "[0:v]settb=AVTB,setpts=PTS-STARTPTS,format=pix_fmts=yuv420p10,fps=24000/1001,scale=1920:1080:flags=bicubic[main];[1:v]settb=AVTB,setpts=PTS-STARTPTS,format=pix_fmts=yuv420p,fps=24000/1001,scale=1920:1080:flags=bicubic[ref];[main][ref]psnr=eof_action=endall:stats_file='D\\:/Convert/FFMetrics/logs/psnr_logfile-6.txt'" -f null -
Input #0, matroska,webm, from 'G:\Аниме\Онгоинги\!_34_Весна_2024\DreamCast\Две стороны сэйю радио\[DC] Seiyuu Radio no Uraomote - 07_Telegram_HEVC.mkv':
  Metadata:
    COMPATIBLE_BRANDS: isomiso2avc1mp41
    MAJOR_BRAND     : isom
    MINOR_VERSION   : 512
    ENCODER         : Lavf61.7.100
  Duration: 00:23:46.77, start: -0.021000, bitrate: 952 kb/s
  Stream #0:0: Video: hevc (Main 10), yuv420p10le(tv, bt709, progressive), 1920x1080 [SAR 1:1 DAR 16:9], 23.98 fps, 23.98 tbr, 1k tbn (default)
      Metadata:
        HANDLER_NAME    : VideoHandler
        VENDOR_ID       : [0][0][0][0]
        ENCODER         : Lavc61.19.100 libx265
        BPS             : 755578
        DURATION        : 00:23:46.591708333
        NUMBER_OF_FRAMES: 34204
        NUMBER_OF_BYTES : 134737623
        _STATISTICS_WRITING_APP: mkvpropedit v66.0.0 ('Josie') 64-bit
        _STATISTICS_WRITING_DATE_UTC: 2025-05-26 08:52:30
        _STATISTICS_TAGS: BPS DURATION NUMBER_OF_FRAMES NUMBER_OF_BYTES
  Stream #0:1: Audio: aac (LC), 48000 Hz, stereo, fltp (default)
      Metadata:
        HANDLER_NAME    : SoundHandler
        VENDOR_ID       : [0][0][0][0]
        ENCODER         : Lavc61.19.100 aac
        BPS             : 193051
        DURATION        : 00:23:46.773000000
        NUMBER_OF_FRAMES: 66881
        NUMBER_OF_BYTES : 34430086
        _STATISTICS_WRITING_APP: mkvpropedit v66.0.0 ('Josie') 64-bit
        _STATISTICS_WRITING_DATE_UTC: 2025-05-26 08:52:30
        _STATISTICS_TAGS: BPS DURATION NUMBER_OF_FRAMES NUMBER_OF_BYTES
Input #1, mov,mp4,m4a,3gp,3g2,mj2, from 'G:\Аниме\Онгоинги\!_34_Весна_2024\DreamCast\Две стороны сэйю радио\[DC] Seiyuu Radio no Uraomote - 07_Telegram.mp4':
  Metadata:
    major_brand     : isom
    minor_version   : 512
    compatible_brands: isomiso2avc1mp41
    encoder         : Lavf60.16.100
  Duration: 00:23:46.72, start: 0.000000, bitrate: 3726 kb/s
  Stream #1:0[0x1](und): Video: h264 (High) (avc1 / 0x31637661), yuv420p(tv, bt709, progressive), 1920x1080 [SAR 1:1 DAR 16:9], 3578 kb/s, 23.98 fps, 23.98 tbr, 24k tbn (default)
      Metadata:
        handler_name    : VideoHandler
        vendor_id       : [0][0][0][0]
        encoder         : Lavc60.31.102 h264_qsv
  Stream #1:1[0x2](und): Audio: aac (HE-AACv2) (mp4a / 0x6134706D), 48000 Hz, stereo, fltp, 144 kb/s (default)
      Metadata:
        handler_name    : SoundHandler
        vendor_id       : [0][0][0][0]
Stream mapping:
  Stream #0:0 (hevc) -> settb:default
  Stream #1:0 (h264) -> settb:default
  psnr:default -> Stream #0:0 (wrapped_avframe)
  Stream #0:1 -> #0:1 (aac (native) -> pcm_s16le (native))
Output #0, null, to 'pipe:':
  Metadata:
    COMPATIBLE_BRANDS: isomiso2avc1mp41
    MAJOR_BRAND     : isom
    MINOR_VERSION   : 512
    encoder         : Lavf61.7.100
  Stream #0:0: Video: wrapped_avframe, yuv420p10le(tv, bt709, progressive), 1920x1080 [SAR 1:1 DAR 16:9], q=2-31, 200 kb/s, 23.98 fps, 23.98 tbn
      Metadata:
        encoder         : Lavc61.19.100 wrapped_avframe
  Stream #0:1: Audio: pcm_s16le, 48000 Hz, stereo, s16, 1536 kb/s (default)
      Metadata:
        HANDLER_NAME    : SoundHandler
        VENDOR_ID       : [0][0][0][0]
        _STATISTICS_TAGS: BPS DURATION NUMBER_OF_FRAMES NUMBER_OF_BYTES
        BPS             : 193051
        DURATION        : 00:23:46.773000000
        NUMBER_OF_FRAMES: 66881
        NUMBER_OF_BYTES : 34430086
        _STATISTICS_WRITING_APP: mkvpropedit v66.0.0 ('Josie') 64-bit
        _STATISTICS_WRITING_DATE_UTC: 2025-05-26 08:52:30
        encoder         : Lavc61.19.100 pcm_s16le
frame=  184 fps=0.0 q=-0.0 size=N/A time=00:00:07.67 bitrate=N/A speed=14.8x    frame=  442 fps=424 q=-0.0 size=N/A time=00:00:18.43 bitrate=N/A speed=17.7x    frame=  653 fps=422 q=-0.0 size=N/A time=00:00:27.23 bitrate=N/A speed=17.6x    frame=  911 fps=440 q=-0.0 size=N/A time=00:00:37.99 bitrate=N/A speed=18.3x    frame= 1174 fps=456 q=-0.0 size=N/A time=00:00:48.96 bitrate=N/A speed=  19x    frame= 1407 fps=455 q=-0.0 size=N/A time=00:00:58.68 bitrate=N/A speed=  19x    frame= 1666 fps=460 q=-0.0 size=N/A time=00:01:09.48 bitrate=N/A speed=19.2x    frame= 1897 fps=460 q=-0.0 size=N/A time=00:01:19.12 bitrate=N/A speed=19.2x    frame= 2149 fps=463 q=-0.0 size=N/A time=00:01:29.63 bitrate=N/A speed=19.3x    frame= 2383 fps=462 q=-0.0 size=N/A time=00:01:39.39 bitrate=N/A speed=19.3x    frame= 2518 fps=444 q=-0.0 size=N/A time=00:01:45.02 bitrate=N/A speed=18.5x    frame= 2655 fps=428 q=-0.0 size=N/A time=00:01:50.73 bitrate=N/A speed=17.9x    frame= 2868 fps=428 q=-0.0 size=N/A time=00:01:59.61 bitrate=N/A speed=17.8x    frame= 3085 fps=427 q=-0.0 size=N/A time=00:02:08.67 bitrate=N/A speed=17.8x    frame= 3304 fps=427 q=-0.0 size=N/A time=00:02:17.80 bitrate=N/A speed=17.8x    frame= 3516 fps=426 q=-0.0 size=N/A time=00:02:26.64 bitrate=N/A speed=17.8x    frame= 3729 fps=426 q=-0.0 size=N/A time=00:02:35.53 bitrate=N/A speed=17.8x    frame= 3996 fps=430 q=-0.0 size=N/A time=00:02:46.66 bitrate=N/A speed=  18x    frame= 4262 fps=435 q=-0.0 size=N/A time=00:02:57.76 bitrate=N/A speed=18.1x    frame= 4524 fps=439 q=-0.0 size=N/A time=00:03:08.68 bitrate=N/A speed=18.3x    frame= 4748 fps=438 q=-0.0 size=N/A time=00:03:18.03 bitrate=N/A speed=18.3x    frame= 5010 fps=442 q=-0.0 size=N/A time=00:03:28.95 bitrate=N/A speed=18.4x    frame= 5260 fps=443 q=-0.0 size=N/A time=00:03:39.38 bitrate=N/A speed=18.5x    frame= 5517 fps=446 q=-0.0 size=N/A time=00:03:50.10 bitrate=N/A speed=18.6x    frame= 5774 fps=448 q=-0.0 size=N/A time=00:04:00.82 bitrate=N/A speed=18.7x    frame= 6039 fps=450 q=-0.0 size=N/A time=00:04:11.87 bitrate=N/A speed=18.8x    frame= 6282 fps=451 q=-0.0 size=N/A time=00:04:22.01 bitrate=N/A speed=18.8x    frame= 6557 fps=454 q=-0.0 size=N/A time=00:04:33.48 bitrate=N/A speed=18.9x    frame= 6807 fps=455 q=-0.0 size=N/A time=00:04:43.90 bitrate=N/A speed=  19x    frame= 7037 fps=455 q=-0.0 size=N/A time=00:04:53.50 bitrate=N/A speed=  19x    frame= 7296 fps=456 q=-0.0 size=N/A time=00:05:04.30 bitrate=N/A speed=  19x    frame= 7560 fps=458 q=-0.0 size=N/A time=00:05:15.31 bitrate=N/A speed=19.1x    frame= 7830 fps=460 q=-0.0 size=N/A time=00:05:26.57 bitrate=N/A speed=19.2x    frame= 8044 fps=459 q=-0.0 size=N/A time=00:05:35.50 bitrate=N/A speed=19.1x    frame= 8319 fps=461 q=-0.0 size=N/A time=00:05:46.97 bitrate=N/A speed=19.2x    frame= 8559 fps=461 q=-0.0 size=N/A time=00:05:56.98 bitrate=N/A speed=19.2x    frame= 8803 fps=461 q=-0.0 size=N/A time=00:06:07.15 bitrate=N/A speed=19.2x    frame= 9083 fps=463 q=-0.0 size=N/A time=00:06:18.83 bitrate=N/A speed=19.3x    frame= 9358 fps=465 q=-0.0 size=N/A time=00:06:30.30 bitrate=N/A speed=19.4x    frame= 9632 fps=467 q=-0.0 size=N/A time=00:06:41.73 bitrate=N/A speed=19.5x    frame= 9872 fps=467 q=-0.0 size=N/A time=00:06:51.74 bitrate=N/A speed=19.5x    frame=10076 fps=465 q=-0.0 size=N/A time=00:07:00.25 bitrate=N/A speed=19.4x    frame=10326 fps=466 q=-0.0 size=N/A time=00:07:10.68 bitrate=N/A speed=19.4x    frame=10587 fps=467 q=-0.0 size=N/A time=00:07:21.56 bitrate=N/A speed=19.5x    frame=10851 fps=467 q=-0.0 size=N/A time=00:07:32.57 bitrate=N/A speed=19.5x    frame=11127 fps=469 q=-0.0 size=N/A time=00:07:44.08 bitrate=N/A speed=19.6x    frame=11382 fps=470 q=-0.0 size=N/A time=00:07:54.72 bitrate=N/A speed=19.6x    frame=11661 fps=471 q=-0.0 size=N/A time=00:08:06.36 bitrate=N/A speed=19.7x    frame=11948 fps=473 q=-0.0 size=N/A time=00:08:18.33 bitrate=N/A speed=19.7x    frame=12216 fps=474 q=-0.0 size=N/A time=00:08:29.50 bitrate=N/A speed=19.8x    frame=12478 fps=474 q=-0.0 size=N/A time=00:08:40.43 bitrate=N/A speed=19.8x    frame=12763 fps=476 q=-0.0 size=N/A time=00:08:52.32 bitrate=N/A speed=19.9x    frame=13031 fps=477 q=-0.0 size=N/A time=00:09:03.50 bitrate=N/A speed=19.9x    frame=13297 fps=478 q=-0.0 size=N/A time=00:09:14.59 bitrate=N/A speed=19.9x    frame=13569 fps=478 q=-0.0 size=N/A time=00:09:25.94 bitrate=N/A speed=  20x    frame=13830 fps=479 q=-0.0 size=N/A time=00:09:36.82 bitrate=N/A speed=  20x    frame=14081 fps=479 q=-0.0 size=N/A time=00:09:47.29 bitrate=N/A speed=  20x    frame=14278 fps=477 q=-0.0 size=N/A time=00:09:55.51 bitrate=N/A speed=19.9x    frame=14563 fps=479 q=-0.0 size=N/A time=00:10:07.39 bitrate=N/A speed=  20x    frame=14842 fps=480 q=-0.0 size=N/A time=00:10:19.03 bitrate=N/A speed=  20x    frame=15127 fps=481 q=-0.0 size=N/A time=00:10:30.92 bitrate=N/A speed=20.1x    frame=15412 fps=482 q=-0.0 size=N/A time=00:10:42.80 bitrate=N/A speed=20.1x    frame=15664 fps=482 q=-0.0 size=N/A time=00:10:53.31 bitrate=N/A speed=20.1x    frame=15947 fps=483 q=-0.0 size=N/A time=00:11:05.12 bitrate=N/A speed=20.2x    frame=16227 fps=484 q=-0.0 size=N/A time=00:11:16.80 bitrate=N/A speed=20.2x    frame=16517 fps=485 q=-0.0 size=N/A time=00:11:28.89 bitrate=N/A speed=20.2x    frame=16762 fps=485 q=-0.0 size=N/A time=00:11:39.11 bitrate=N/A speed=20.2x    frame=16890 fps=482 q=-0.0 size=N/A time=00:11:44.45 bitrate=N/A speed=20.1x    frame=17044 fps=479 q=-0.0 size=N/A time=00:11:50.87 bitrate=N/A speed=  20x    frame=17311 fps=480 q=-0.0 size=N/A time=00:12:02.01 bitrate=N/A speed=  20x    frame=17576 fps=480 q=-0.0 size=N/A time=00:12:13.06 bitrate=N/A speed=  20x    frame=17829 fps=480 q=-0.0 size=N/A time=00:12:23.61 bitrate=N/A speed=  20x    frame=18088 fps=480 q=-0.0 size=N/A time=00:12:34.42 bitrate=N/A speed=  20x    frame=18347 fps=481 q=-0.0 size=N/A time=00:12:45.22 bitrate=N/A speed=20.1x    frame=18612 fps=481 q=-0.0 size=N/A time=00:12:56.27 bitrate=N/A speed=20.1x    frame=18894 fps=482 q=-0.0 size=N/A time=00:13:08.03 bitrate=N/A speed=20.1x    frame=19146 fps=482 q=-0.0 size=N/A time=00:13:18.54 bitrate=N/A speed=20.1x    frame=19407 fps=482 q=-0.0 size=N/A time=00:13:29.43 bitrate=N/A speed=20.1x    frame=19693 fps=483 q=-0.0 size=N/A time=00:13:41.36 bitrate=N/A speed=20.2x    frame=19965 fps=484 q=-0.0 size=N/A time=00:13:52.70 bitrate=N/A speed=20.2x    frame=20234 fps=484 q=-0.0 size=N/A time=00:14:03.92 bitrate=N/A speed=20.2x    frame=20490 fps=485 q=-0.0 size=N/A time=00:14:14.60 bitrate=N/A speed=20.2x    frame=20761 fps=485 q=-0.0 size=N/A time=00:14:25.90 bitrate=N/A speed=20.2x    frame=21030 fps=485 q=-0.0 size=N/A time=00:14:37.12 bitrate=N/A speed=20.2x    frame=21276 fps=485 q=-0.0 size=N/A time=00:14:47.38 bitrate=N/A speed=20.2x    frame=21544 fps=486 q=-0.0 size=N/A time=00:14:58.56 bitrate=N/A speed=20.3x    frame=21837 fps=487 q=-0.0 size=N/A time=00:15:10.78 bitrate=N/A speed=20.3x    frame=22112 fps=487 q=-0.0 size=N/A time=00:15:22.25 bitrate=N/A speed=20.3x    frame=22363 fps=487 q=-0.0 size=N/A time=00:15:32.72 bitrate=N/A speed=20.3x    frame=22619 fps=487 q=-0.0 size=N/A time=00:15:43.40 bitrate=N/A speed=20.3x    frame=22889 fps=488 q=-0.0 size=N/A time=00:15:54.66 bitrate=N/A speed=20.3x    frame=23171 fps=488 q=-0.0 size=N/A time=00:16:06.42 bitrate=N/A speed=20.4x    frame=23422 fps=488 q=-0.0 size=N/A time=00:16:16.89 bitrate=N/A speed=20.4x    frame=23699 fps=489 q=-0.0 size=N/A time=00:16:28.44 bitrate=N/A speed=20.4x    frame=23930 fps=489 q=-0.0 size=N/A time=00:16:38.08 bitrate=N/A speed=20.4x    frame=24189 fps=489 q=-0.0 size=N/A time=00:16:48.88 bitrate=N/A speed=20.4x    frame=24409 fps=488 q=-0.0 size=N/A time=00:16:58.05 bitrate=N/A speed=20.4x    frame=24652 fps=488 q=-0.0 size=N/A time=00:17:08.19 bitrate=N/A speed=20.3x    frame=24893 fps=488 q=-0.0 size=N/A time=00:17:18.24 bitrate=N/A speed=20.3x    frame=25159 fps=488 q=-0.0 size=N/A time=00:17:29.33 bitrate=N/A speed=20.4x    frame=25438 fps=488 q=-0.0 size=N/A time=00:17:40.97 bitrate=N/A speed=20.4x    frame=25669 fps=488 q=-0.0 size=N/A time=00:17:50.61 bitrate=N/A speed=20.4x    frame=25906 fps=488 q=-0.0 size=N/A time=00:18:00.49 bitrate=N/A speed=20.3x    frame=26125 fps=487 q=-0.0 size=N/A time=00:18:09.63 bitrate=N/A speed=20.3x    frame=26367 fps=487 q=-0.0 size=N/A time=00:18:19.72 bitrate=N/A speed=20.3x    frame=26637 fps=487 q=-0.0 size=N/A time=00:18:30.98 bitrate=N/A speed=20.3x    frame=26895 fps=487 q=-0.0 size=N/A time=00:18:41.74 bitrate=N/A speed=20.3x    frame=27155 fps=488 q=-0.0 size=N/A time=00:18:52.63 bitrate=N/A speed=20.3x    frame=27430 fps=488 q=-0.0 size=N/A time=00:19:04.05 bitrate=N/A speed=20.4x    frame=27695 fps=488 q=-0.0 size=N/A time=00:19:15.11 bitrate=N/A speed=20.4x    frame=27944 fps=488 q=-0.0 size=N/A time=00:19:25.49 bitrate=N/A speed=20.4x    frame=28180 fps=488 q=-0.0 size=N/A time=00:19:35.34 bitrate=N/A speed=20.3x    frame=28380 fps=487 q=-0.0 size=N/A time=00:19:43.68 bitrate=N/A speed=20.3x    frame=28579 fps=486 q=-0.0 size=N/A time=00:19:51.98 bitrate=N/A speed=20.3x    frame=28790 fps=486 q=-0.0 size=N/A time=00:20:00.78 bitrate=N/A speed=20.3x    frame=29036 fps=485 q=-0.0 size=N/A time=00:20:11.04 bitrate=N/A speed=20.2x    frame=29259 fps=485 q=-0.0 size=N/A time=00:20:20.34 bitrate=N/A speed=20.2x    frame=29480 fps=485 q=-0.0 size=N/A time=00:20:29.56 bitrate=N/A speed=20.2x    frame=29721 fps=484 q=-0.0 size=N/A time=00:20:39.61 bitrate=N/A speed=20.2x    frame=29989 fps=485 q=-0.0 size=N/A time=00:20:50.79 bitrate=N/A speed=20.2x    frame=30248 fps=485 q=-0.0 size=N/A time=00:21:01.59 bitrate=N/A speed=20.2x    frame=30510 fps=485 q=-0.0 size=N/A time=00:21:12.52 bitrate=N/A speed=20.2x    frame=30754 fps=485 q=-0.0 size=N/A time=00:21:22.69 bitrate=N/A speed=20.2x    frame=31014 fps=485 q=-0.0 size=N/A time=00:21:33.54 bitrate=N/A speed=20.2x    frame=31250 fps=485 q=-0.0 size=N/A time=00:21:43.38 bitrate=N/A speed=20.2x    frame=31457 fps=484 q=-0.0 size=N/A time=00:21:52.01 bitrate=N/A speed=20.2x    frame=31672 fps=484 q=-0.0 size=N/A time=00:22:00.98 bitrate=N/A speed=20.2x    frame=31896 fps=483 q=-0.0 size=N/A time=00:22:10.32 bitrate=N/A speed=20.2x    frame=32092 fps=482 q=-0.0 size=N/A time=00:22:18.50 bitrate=N/A speed=20.1x    frame=32297 fps=482 q=-0.0 size=N/A time=00:22:27.05 bitrate=N/A speed=20.1x    frame=32520 fps=481 q=-0.0 size=N/A time=00:22:36.35 bitrate=N/A speed=20.1x    frame=32742 fps=481 q=-0.0 size=N/A time=00:22:45.61 bitrate=N/A speed=20.1x    frame=32970 fps=481 q=-0.0 size=N/A time=00:22:55.12 bitrate=N/A speed=20.1x    frame=33234 fps=481 q=-0.0 size=N/A time=00:23:06.13 bitrate=N/A speed=20.1x    frame=33503 fps=481 q=-0.0 size=N/A time=00:23:17.35 bitrate=N/A speed=20.1x    frame=33784 fps=482 q=-0.0 size=N/A time=00:23:29.07 bitrate=N/A speed=20.1x    frame=34065 fps=482 q=-0.0 size=N/A time=00:23:40.79 bitrate=N/A speed=20.1x    [Parsed_psnr_10 @ 000002613b6758c0] PSNR y:49.048434 u:50.970152 v:50.834108 average:49.582839 min:39.126675 max:inf
[out#0/null @ 000002612e183b80] video:14697KiB audio:267524KiB subtitle:0KiB other streams:0KiB global headers:0KiB muxing overhead: unknown
frame=34204 fps=482 q=-0.0 Lsize=N/A time=00:23:46.59 bitrate=N/A speed=20.1x    
